<?xml version="1.0" encoding="UTF-8" standalone="no"?>
<!-- Created with Inkscape (http://www.inkscape.org/) -->

<svg
   width="79.476616"
   height="83.001015"
   viewBox="0 0 21.028188 21.960685"
   version="1.1"
   id="svg1"
   inkscape:version="1.3 (0e150ed6c4, 2023-07-21)"
   sodipodi:docname="キモキャラ5.svg"
   xmlns:inkscape="http://www.inkscape.org/namespaces/inkscape"
   xmlns:sodipodi="http://sodipodi.sourceforge.net/DTD/sodipodi-0.dtd"
   xmlns="http://www.w3.org/2000/svg"
   xmlns:svg="http://www.w3.org/2000/svg">
  <sodipodi:namedview
     id="namedview1"
     pagecolor="#505050"
     bordercolor="#ffffff"
     borderopacity="1"
     inkscape:showpageshadow="0"
     inkscape:pageopacity="0"
     inkscape:pagecheckerboard="1"
     inkscape:deskcolor="#505050"
     inkscape:document-units="mm"
     inkscape:zoom="5.6568543"
     inkscape:cx="20.417708"
     inkscape:cy="23.776465"
     inkscape:window-width="1920"
     inkscape:window-height="1017"
     inkscape:window-x="-8"
     inkscape:window-y="-8"
     inkscape:window-maximized="1"
     inkscape:current-layer="layer1" />
  <defs
     id="defs1" />
  <g
     inkscape:label="Layer 1"
     inkscape:groupmode="layer"
     id="layer1"
     transform="translate(-165.99707,-84.376546)">
    <path
       id="rect24"
       style="fill:#c83737;stroke:#000000;stroke-width:0.0531499;stroke-linecap:round;stroke-linejoin:round"
       inkscape:label="舌"
       transform="rotate(-17.047503)"
       d="m 131.08357,142.29713 h 20.6375 v 0.77589 h -20.6375 z" />
    <path
       style="fill:#ce9348;stroke:#000000;stroke-width:0.443322;stroke-linecap:butt;stroke-linejoin:round"
       d="m 167.15422,97.986743 c -2.24471,-3.887961 -0.3085,-9.208261 4.32465,-11.883216 4.63316,-2.674955 10.20878,-1.691613 12.4535,2.196347"
       id="path21"
       inkscape:label="top" />
    <path
       style="fill:#ce9348;stroke:#000000;stroke-width:0.443322;stroke-linecap:butt;stroke-linejoin:round"
       d="m 186.52797,97.986736 c 0,4.489434 -4.33697,8.128834 -9.68687,8.128834 -5.3499,0 -9.68687,-3.63941 -9.68688,-8.128827"
       id="path20"
       inkscape:label="bottom" />
    <path
       id="path22"
       style="fill:#ffffff;stroke:#000000;stroke-width:0.2;stroke-linecap:round;stroke-linejoin:round"
       inkscape:label="目BOX"
       d="m 179.18906,87.544006 a 0.95911455,0.95911455 0 0 1 -0.95911,0.959115 0.95911455,0.95911455 0 0 1 -0.95911,-0.959115 0.95911455,0.95911455 0 0 1 0.95911,-0.959114 0.95911455,0.95911455 0 0 1 0.95911,0.959114 z" />
    <path
       id="path23"
       style="fill:#ffffff;stroke:#000000;stroke-width:0.2;stroke-linecap:round;stroke-linejoin:round"
       inkscape:label="黒目"
       d="m 178.52228,87.544006 a 0.29232603,0.31571212 0 0 1 -0.29233,0.315712 0.29232603,0.31571212 0 0 1 -0.29233,-0.315712 0.29232603,0.31571212 0 0 1 0.29233,-0.315712 0.29232603,0.31571212 0 0 1 0.29233,0.315712 z" />
    <path
       id="path24"
       style="fill:#87f551;stroke:#000000;stroke-width:0.1;stroke-linecap:round;stroke-linejoin:round"
       inkscape:label="ヘタ"
       inkscape:transform-center-x="2.1501939e-06"
       inkscape:transform-center-y="-1.0748023e-06"
       transform="translate(0.25990869,0.6503499)"
       d="m 171.47888,86.103525 -0.65547,-0.246732 -0.43326,0.550269 -0.11405,-0.691015 -0.69318,-0.100079 0.54141,-0.444282 -0.25992,-0.650349 0.65547,0.246733 0.43326,-0.550269 0.11405,0.691014 0.69318,0.10008 -0.54141,0.444282 z" />
  </g>
</svg>
